<svg xmlns="http://www.w3.org/2000/svg" viewBox="0 0 64 64">
  <rect width="64" height="64" rx="14" fill="#fbfaee"/>
  <path d="M18 10c0-4 3-7 7-7s7 3 7 7v14h-6V11a1 1 0 0 0-2 0v13h-6V10zm20 0c0-4 3-7 7-7s7 3 7 7v14h-6V11a1 1 0 0 0-2 0v13h-6V10z" fill="#c00014"/>
  <circle cx="32" cy="37" r="15" fill="#c00014"/>
  <circle cx="27" cy="34" r="2" fill="#fbfaee"/>
  <circle cx="37" cy="34" r="2" fill="#fbfaee"/>
  <path d="M25 41c2 3 4 4 7 4s5-1 7-4" stroke="#fbfaee" stroke-width="3" stroke-linecap="round" fill="none"/>
  <circle cx="22" cy="40" r="2" fill="#705d00"/>
  <circle cx="42" cy="40" r="2" fill="#705d00"/>
</svg>
